<?xml version="1.0" encoding="UTF-8"?>
<svg version="1.1" xmlns="http://www.w3.org/2000/svg" width="512" height="512">
<path d="M0 0 C3.10522461 1.25 3.10522461 1.25 6.40234375 3 C6.99711517 3.31138412 7.5918866 3.62276825 8.2046814 3.94358826 C10.1219476 4.95089896 12.02956135 5.97514986 13.9375 7 C15.25812884 7.69779258 16.57933907 8.3944859 17.90112305 9.09008789 C21.60869661 11.04538182 25.30522974 13.02062077 29 15 C30.55979194 15.83222601 32.11966604 16.66429807 33.6796875 17.49609375 C34.23769043 17.79443115 34.79569336 18.09276855 35.37060547 18.40014648 C36.01143066 18.74247314 36.65225586 19.0847998 37.3125 19.4375 C38.34600586 19.9929248 39.37951172 20.54834961 40.44433594 21.12060547 C43.93911421 22.98148068 47.47626162 24.75329459 51.0234375 26.51171875 C60.5116281 31.23702715 69.95170062 36.05568614 79.3894043 40.88085938 C82.29732342 42.36724249 85.2062475 43.8516454 88.11523438 45.3359375 C98.02136575 50.39572669 107.9047705 55.4936483 117.73432922 60.70089722 C123.59726499 63.80466606 129.50735433 66.80378006 135.453125 69.74609375 C151.4639908 77.68194603 167.4525868 85.63875343 183.21435547 94.0612793 C185.12897605 95.06780324 187.06529332 96.03264666 189 97 C189 114.82 189 132.64 189 151 C210.12 151 231.24 151 253 151 C253 220.3 253 289.6 253 361 C232.21 361.33 211.42 361.66 190 362 C189.67 379.49 189.34 396.98 189 415 C182.565 418.3 176.13 421.6 169.5 425 C167.50517578 426.02351563 165.51035156 427.04703125 163.45507812 428.1015625 C154.84100166 432.51791643 146.21539969 436.90701032 137.54956055 441.22094727 C131.16109201 444.40655845 124.82867814 447.69739043 118.5 451 C111.27595956 454.76123794 104.05016854 458.51330698 96.75 462.125 C86.41198075 467.2450959 76.21758634 472.64494019 66 478 C41.79326257 490.68680513 41.79326257 490.68680513 33.50854492 494.76245117 C29.60723391 496.68307368 25.73474099 498.6513666 21.87864685 500.66156006 C19.35162644 501.9760064 16.81791561 503.27725891 14.28353882 504.57745361 C13.02034368 505.22942139 11.76004056 505.88702601 10.50283813 506.55047607 C8.72576746 507.48726457 6.9372406 508.40222008 5.1484375 509.31640625 C4.10864746 509.85724854 3.06885742 510.39809082 1.99755859 510.95532227 C-2.82026075 512.63437822 -5.97888558 511.45395442 -10.5234375 509.43359375 C-11.81149155 508.77639644 -13.09530136 508.11082232 -14.375 507.4375 C-15.63255838 506.7898709 -16.89038726 506.14276687 -18.1484375 505.49609375 C-18.87321289 505.12081543 -19.59798828 504.74553711 -20.34472656 504.35888672 C-23.69899635 502.64227532 -27.07241107 500.96473274 -30.4453125 499.28515625 C-39.91532761 494.56337439 -49.31618199 489.7097154 -58.71826172 484.85449219 C-67.27055818 480.43979562 -75.8398086 476.06612769 -84.45556641 471.77648926 C-89.84263054 469.09004366 -95.1776733 466.31247037 -100.5 463.5 C-110.02128714 458.49764965 -119.62129258 453.6658137 -129.25 448.875 C-138.46447522 444.29020088 -147.64934507 439.66898483 -156.7253418 434.81396484 C-161.6936471 432.17241868 -166.70780587 429.63351037 -171.74609375 427.12890625 C-172.42929688 426.78907211 -173.1125 426.44923798 -173.81640625 426.09910583 C-177.24966848 424.39296961 -180.68577366 422.69284415 -184.12548828 420.99975586 C-185.38708818 420.37492588 -186.6486461 419.75001115 -187.91015625 419.125 C-189.03558838 418.57070313 -190.16102051 418.01640625 -191.32055664 417.4453125 C-194 416 -194 416 -196 414 C-196.24050903 411.74740601 -196.24050903 411.74740601 -196.22705078 408.90771484 C-196.22689972 407.84676605 -196.22674866 406.78581726 -196.22659302 405.69271851 C-196.21627045 404.54373077 -196.20594788 403.39474304 -196.1953125 402.2109375 C-196.1924826 401.03737701 -196.18965271 399.86381653 -196.18673706 398.6546936 C-196.17551355 394.89469338 -196.15040492 391.13492861 -196.125 387.375 C-196.11497301 384.8307326 -196.10584668 382.28646148 -196.09765625 379.7421875 C-196.07556714 373.4947109 -196.04206824 367.24737227 -196 361 C-197.19786133 361.03029297 -198.39572266 361.06058594 -199.62988281 361.09179688 C-204.1775114 361.20612884 -208.72521677 361.31712969 -213.27294922 361.42724609 C-215.22186402 361.47487416 -217.17075847 361.52334406 -219.11962891 361.57275391 C-221.95990821 361.64460403 -224.80025293 361.71317645 -227.640625 361.78125 C-228.8966452 361.81406067 -228.8966452 361.81406067 -230.17803955 361.84753418 C-239.79053676 362.07147358 -249.37522814 362 -259 362 C-259 292.37 -259 222.74 -259 151 C-237.88 151 -216.76 151 -195 151 C-195 133.18 -195 115.36 -195 97 C-182.95908052 90.66267396 -170.91459983 84.34305535 -158.8125 78.125 C-158.06363525 77.73981201 -157.31477051 77.35462402 -156.54321289 76.95776367 C-146.20657934 71.64231204 -135.8511592 66.3693776 -125.42504883 61.23095703 C-119.62807282 58.36160653 -113.90279168 55.37129571 -108.1875 52.34375 C-96.62292171 46.22617219 -84.90656093 40.42079735 -73.18847656 34.60449219 C-62.55662368 29.32372154 -51.9711797 23.97793837 -41.48138428 18.41964722 C-35.45051326 15.22565293 -29.37236604 12.14021931 -23.25 9.125 C-21.44173343 8.2337461 -19.63441788 7.3405597 -17.828125 6.4453125 C-16.99732422 6.03442383 -16.16652344 5.62353516 -15.31054688 5.20019531 C-13.21544438 4.11191088 -11.23610729 2.92830364 -9.234375 1.6796875 C-5.60727222 -0.20395283 -4.02182845 -0.36782583 0 0 Z M-11.421875 87.125 C-12.27338135 87.57979736 -13.1248877 88.03459473 -14.00219727 88.50317383 C-14.90897217 88.99712646 -15.81574707 89.4910791 -16.75 90 C-18.66997069 91.02586749 -20.59054806 92.05060031 -22.51171875 93.07421875 C-23.45450684 93.57872559 -24.39729492 94.08323242 -25.36865234 94.60302734 C-28.74082764 96.39330263 -32.14160021 98.11763984 -35.5625 99.8125 C-36.47890259 100.26810303 -36.47890259 100.26810303 -37.41381836 100.73291016 C-38.78403837 101.41353568 -40.15458508 102.09350375 -41.52539062 102.77294922 C-62.53513343 113.19076368 -83.34964692 123.88057911 -104 135 C-104 150.51 -104 166.02 -104 182 C-100.03882381 178.04455966 -100.03882381 178.04455966 -96.16015625 174.01953125 C-73.96225941 150.87711947 -43.08231686 134.72735433 -10.58984375 133.83203125 C25.89577549 133.46963003 56.26981238 146.82615022 82.375 172.125 C85.78698259 175.61666796 88.74659583 179.39404267 91.65234375 183.3125 C92.09707031 183.869375 92.54179687 184.42625 93 185 C93.33 185 93.66 185 94 185 C94 168.5 94 152 94 135 C79.09027516 127.13563043 79.09027516 127.13563043 64.109375 119.4140625 C62.74341942 118.71751556 62.74341942 118.71751556 61.34986877 118.00689697 C59.44846324 117.03730722 57.54681693 116.0681895 55.64492798 115.09954834 C27.66443688 100.84752307 27.66443688 100.84752307 13.77050781 93.53759766 C12.26212237 92.74445454 10.75230384 91.95402775 9.24072266 91.16699219 C7.60626954 90.31575162 5.97633023 89.45582778 4.34912109 88.59082031 C3.02195068 87.90004395 3.02195068 87.90004395 1.66796875 87.1953125 C0.87028076 86.77523926 0.07259277 86.35516602 -0.74926758 85.92236328 C-4.94400772 84.20333429 -7.6594549 85.08762309 -11.421875 87.125 Z M-194 200 C-194.01458252 202.17996582 -194.02916504 204.35993164 -194.04418945 206.60595703 C-194.09458638 213.818507 -194.16119044 221.03084223 -194.23571491 228.24318123 C-194.28039182 232.61490145 -194.31965377 236.98652906 -194.34643555 241.35839844 C-194.37249539 245.57960838 -194.41291653 249.80046143 -194.46318626 254.02145004 C-194.4798369 255.62969388 -194.49136241 257.23799942 -194.49761391 258.84631729 C-194.5072749 261.10381499 -194.53535629 263.36040335 -194.56762695 265.61767578 C-194.57873001 266.90118927 -194.58983307 268.18470276 -194.60127258 269.5071106 C-195.14048455 274.23065782 -196.52233517 277.65666834 -200.0625 280.875 C-206.56888709 283.36680782 -212.59016367 282.23598942 -219 280 C-221.48122217 279.95951558 -221.48122217 279.95951558 -224 281 C-226.34967922 283.58626548 -226.34967922 283.58626548 -228.3125 286.8125 C-229.00988281 287.87082031 -229.70726562 288.92914063 -230.42578125 290.01953125 C-232.31135704 293.02771545 -232.31135704 293.02771545 -232 297 C-230.845 297.61875 -229.69 298.2375 -228.5 298.875 C-227.8503125 299.22304688 -227.200625 299.57109375 -226.53125 299.9296875 C-220.13723555 302.63332941 -214.04860767 303.36348174 -207.1875 303.3125 C-206.00728271 303.30512817 -206.00728271 303.30512817 -204.80322266 303.29760742 C-194.31343223 303.08755308 -185.10488703 300.67476999 -177.28125 293.40234375 C-170.15595806 285.73566933 -168.86907472 276.7222168 -168.88647461 266.52587891 C-168.88632858 265.80323853 -168.88618256 265.08059814 -168.8860321 264.33605957 C-168.88672439 261.96619584 -168.89448454 259.59641237 -168.90234375 257.2265625 C-168.90421036 255.57604007 -168.90563312 253.92551708 -168.90663147 252.2749939 C-168.9104375 247.94478813 -168.92025134 243.61461626 -168.93133545 239.28442383 C-168.94159083 234.86019346 -168.94613791 230.43595759 -168.95117188 226.01171875 C-168.96187542 217.3411286 -168.97945662 208.67057243 -169 200 C-177.25 200 -185.5 200 -194 200 Z M-159 200 C-154.31387173 210.15327793 -149.49222678 220.12789034 -144.125 229.9375 C-143.37464478 231.33971802 -143.37464478 231.33971802 -142.60913086 232.77026367 C-140.21917918 237.1890952 -137.78201496 241.40463038 -134.82421875 245.46875 C-123.50729173 261.79861653 -125.59059631 280.91988386 -126 300 C-118.08 300 -110.16 300 -102 300 C-102.05542969 297.43992187 -102.11085937 294.87984375 -102.16796875 292.2421875 C-102.38547084 273.24444855 -102.18668753 257.72521449 -91.49316406 241.34716797 C-89.03302386 237.47996916 -87.01878573 233.39177005 -84.9375 229.3125 C-84.12944677 227.77828752 -83.31825597 226.2457234 -82.50390625 224.71484375 C-81.89699951 223.57184814 -81.89699951 223.57184814 -81.27783203 222.40576172 C-80.85614746 221.61186035 -80.43446289 220.81795898 -80 220 C-78.12206168 216.45988093 -76.24776357 212.91785866 -74.375 209.375 C-73.93663818 208.55040283 -73.49827637 207.72580566 -73.04663086 206.8762207 C-72.64710205 206.12042725 -72.24757324 205.36463379 -71.8359375 204.5859375 C-71.48063965 203.9161084 -71.1253418 203.2462793 -70.75927734 202.55615234 C-69.92691551 201.13879633 -69.92691551 201.13879633 -70 200 C-79.24 200 -88.48 200 -98 200 C-101.06675382 208.29981718 -101.06675382 208.29981718 -104.1315918 216.6003418 C-107.02615314 224.42484179 -109.98558126 232.22093339 -113 240 C-115.47710541 237.52289459 -116.19653553 235.30133776 -117.4609375 232.03125 C-117.93273437 230.81953125 -118.40453125 229.6078125 -118.890625 228.359375 C-119.38559169 227.072984 -119.88038232 225.78652524 -120.375 224.5 C-120.86148385 223.24459961 -121.34845808 221.98938914 -121.8359375 220.734375 C-122.74915188 218.38185534 -123.66006481 216.02843998 -124.56787109 213.67382812 C-126.3491585 209.10430667 -128.17853749 204.55365627 -130 200 C-139.57 200 -149.14 200 -159 200 Z M90.4375 328.375 C89.79683594 329.00148438 89.15617188 329.62796875 88.49609375 330.2734375 C86.78171152 331.87115151 86.78171152 331.87115151 87 334 C86.40751465 334.26272705 85.8150293 334.5254541 85.20458984 334.79614258 C82.89777989 336.0558192 81.50992399 337.34636593 79.7265625 339.26171875 C65.54119748 353.82751974 44.68495541 364.44061695 25 369 C23.1746875 369.44279297 23.1746875 369.44279297 21.3125 369.89453125 C-12.31422143 377.31261486 -45.90467581 369.2511403 -74.8125 351.5625 C-83.82960008 345.5869889 -91.69184386 338.5503654 -99.20483398 330.80981445 C-100.45422869 329.52446594 -101.72506085 328.26001511 -103 327 C-103.33 327 -103.66 327 -104 327 C-104 343.5 -104 360 -104 377 C-92.12440651 383.25031236 -80.25244606 389.45465513 -68.25390625 395.45703125 C-66.74036571 396.2154168 -65.22685216 396.97385621 -63.71336365 397.73234558 C-60.58247321 399.30074242 -57.45079556 400.86755393 -54.31860352 402.43334961 C-50.33756726 404.42381654 -46.35933369 406.41981875 -42.38174534 408.4171648 C-39.27303661 409.97711177 -36.16248955 411.53336529 -33.05143547 413.08862877 C-31.58421207 413.82282333 -30.11762339 414.55828799 -28.65173531 415.29514503 C-24.70750085 417.27682619 -20.74931056 419.22265173 -16.76831245 421.12938118 C-15.07518954 421.96298085 -13.41307665 422.85869441 -11.75328064 423.75682068 C-6.22058433 426.53866229 -6.22058433 426.53866229 -0.17869568 426.51469421 C2.86025194 425.35113799 5.59856958 423.95394871 8.44140625 422.37109375 C9.48916733 421.83283463 10.53692841 421.2945755 11.61643982 420.74000549 C14.95478632 419.01287338 18.2573667 417.22722666 21.5625 415.4375 C23.7537601 414.29090099 25.94710882 413.14828425 28.14257812 412.00976562 C33.46204506 409.23943727 38.75453516 406.42190976 44.03887939 403.58526611 C48.52234572 401.18499669 53.02436546 398.82043145 57.52734375 396.45703125 C58.97135762 395.69783385 60.41529108 394.9384835 61.85913086 394.17895508 C62.53297821 393.82453339 63.20682556 393.47011169 63.90109253 393.10494995 C67.60238503 391.15643958 71.3012592 389.20334869 75 387.25 C75.64118271 386.91182755 76.28236542 386.57365509 76.94297791 386.22523499 C82.65842258 383.20155679 88.32185551 380.09716972 94 377 C94.33 359.84 94.66 342.68 95 325 C93.06658053 325 91.72535873 327.10014994 90.4375 328.375 Z " fill="#000000" transform="translate(259,0)"/>
<path d="M0 0 C0.99 0.391875 1.98 0.78375 3 1.1875 C12.89566176 7.16612898 17.76430755 14.44858756 22 25 C23.24391704 30.23277278 23.22131645 35.33443219 23.25 40.6875 C23.270625 41.63044922 23.29125 42.57339844 23.3125 43.54492188 C23.38667171 57.03490162 18.34200753 68.12024989 9.25390625 77.984375 C1.24465367 85.1468955 -7.41728979 86.21068033 -17.6875 86.3125 C-18.64333984 86.34150391 -19.59917969 86.37050781 -20.58398438 86.40039062 C-30.59821223 86.48913293 -38.71775582 82.88179491 -46 76 C-57.12845717 63.51115027 -56.93201859 48.59615105 -56.20263672 32.68212891 C-55.43677789 22.54511068 -50.79560599 14.41993729 -44 7 C-31.74431285 -3.31836203 -14.86699847 -6.62820349 0 0 Z " fill="#F9F9F9" transform="translate(339,214)"/>
<path d="M0 0 C44.8 0 44.8 0 53 7 C58.40429882 12.47998928 60.28731715 17.20262446 60.3125 24.875 C60.18753284 32.84790511 58.69878443 38.13839315 53 44 C49.75 45.8125 49.75 45.8125 47 47 C47.53109375 47.37769531 48.0621875 47.75539063 48.609375 48.14453125 C54.85544816 53.01145322 56.98260828 57.4578011 59 65 C59.21285645 65.7935791 59.42571289 66.5871582 59.64501953 67.40478516 C60.82074271 71.83233477 61.95850567 76.26889993 63.046875 80.71875 C63.23088867 81.47091797 63.41490234 82.22308594 63.60449219 82.99804688 C64 85 64 85 64 88 C57.07 88 50.14 88 43 88 C40.77191084 80.20168795 40.77191084 80.20168795 40.10546875 76.87890625 C38.02920318 65.49451431 38.02920318 65.49451431 32 56 C28.04 55.34 24.08 54.68 20 54 C20 64.89 20 75.78 20 87 C13.4 87 6.8 87 0 87 C0 58.29 0 29.58 0 0 Z " fill="#F6F6F6" transform="translate(375,212)"/>
<path d="M0 0 C17.49 0 34.98 0 53 0 C53 5.61 53 11.22 53 17 C42.11 17 31.22 17 20 17 C20 22.61 20 28.22 20 34 C29.9 34 39.8 34 50 34 C50 39.61 50 45.22 50 51 C40.1 51 30.2 51 20 51 C20 57.93 20 64.86 20 72 C30.89 72 41.78 72 53 72 C53 77.28 53 82.56 53 88 C35.51 88 18.02 88 0 88 C0 58.96 0 29.92 0 0 Z " fill="#F3F3F3" transform="translate(448,212)"/>
<path d="M0 0 C0.75539062 -0.00322266 1.51078125 -0.00644531 2.2890625 -0.00976562 C10.14983714 0.06452005 16.88007977 2.04920323 24 5.3125 C23.50341703 10.97354589 22.45489316 15.18924471 20 20.3125 C16.65750795 19.81112619 13.50740308 19.17293087 10.25 18.25 C3.56612545 16.59494535 -2.51262073 16.20442003 -8.8125 19.3125 C-15.18596751 23.28747178 -18.05445702 29.22698541 -20 36.3125 C-20.95187211 47.41398515 -20.832671 58.20807348 -13.625 67.3125 C-7.754884 71.78496934 -3.23657037 72.77383963 3.9375 72.625 C5.09668945 72.62983398 5.09668945 72.62983398 6.27929688 72.63476562 C11.20774064 72.58893901 15.32568311 71.87475504 20 70.3125 C20.67467562 72.05942795 21.33944156 73.81018525 22 75.5625 C22.37125 76.53703125 22.7425 77.5115625 23.125 78.515625 C24 81.3125 24 81.3125 24 85.3125 C12.03214831 90.81771178 -4.08212014 91.57982414 -16.75 87.75 C-26.65199727 83.72995837 -33.73986508 76.83276985 -38.4765625 67.359375 C-43.94708997 54.21788443 -43.89216691 38.93298645 -38.9921875 25.5625 C-32.90485149 13.30269041 -24.00046148 5.58089469 -11.16796875 0.91015625 C-7.44843532 -0.11522864 -3.83393914 -0.08178198 0 0 Z " fill="#F8F8F8" transform="translate(255,210.6875)"/>
<path d="M0 0 C5.72472098 3.91062534 9.46064987 9.50303236 11.2890625 16.1796875 C13.13874592 29.25566734 12.63986704 41.6154399 4.76171875 52.6640625 C1.91046429 55.82616801 0.09346826 56.79987924 -4.12109375 57.3046875 C-10.3551489 57.38400118 -14.51958711 57.40580771 -19.31640625 52.96875 C-26.10618691 46.17896934 -27.43005555 35.94514763 -27.56640625 26.71875 C-27.45382325 16.82270404 -25.13317759 9.27618869 -18.31640625 1.96875 C-13.48416863 -2.44929582 -5.84815363 -2.6035625 0 0 Z " fill="#060606" transform="translate(330.31640625,228.03125)"/>
<path d="M0 0 C13.52506793 -0.40985054 13.52506793 -0.40985054 18 3 C20.84715297 7.27072946 20.37645222 10.99398644 20 16 C19.2011183 19.41340362 18.63720939 20.52209296 15.84375 22.6171875 C10.76681614 25.08591633 5.55692287 24.1683916 0 24 C0 16.08 0 8.16 0 0 Z " fill="#030303" transform="translate(395,227)"/>
<path d="M0 0 C1.65 0 3.3 0 5 0 C5 0.99 5 1.98 5 3 C5.62599617 4.68236471 6.28752268 6.3523962 7 8 C2.73173127 8 2.06117568 7.62386487 -1 5 C-0.67 3.35 -0.34 1.7 0 0 Z " fill="#0F0F0F" transform="translate(241,273)"/>
<path d="M0 0 C0.66 0.66 1.32 1.32 2 2 C0.68 2.99 -0.64 3.98 -2 5 C-1.34 3.35 -0.68 1.7 0 0 Z M-3 5 C-2.34 5.66 -1.68 6.32 -1 7 C-1.99 7 -2.98 7 -4 7 C-3.67 6.34 -3.34 5.68 -3 5 Z M-7 8 C-6.34 8.33 -5.68 8.66 -5 9 C-5.9590625 9.433125 -5.9590625 9.433125 -6.9375 9.875 C-9.15206079 10.82823451 -9.15206079 10.82823451 -10 13 C-10.66 12.34 -11.32 11.68 -12 11 C-9.625 9.4375 -9.625 9.4375 -7 8 Z " fill="#1E1E1E" transform="translate(433,248)"/>
<path d="M0 0 C0.66 0.33 1.32 0.66 2 1 C2 1.99 2 2.98 2 4 C1.34 4.66 0.68 5.32 0 6 C-4 6 -4 6 -6 5 C-4.02 3.35 -2.04 1.7 0 0 Z " fill="#1B1B1B" transform="translate(245,230)"/>
<path d="M0 0 C1.98 0 3.96 0 6 0 C5.34 1.32 4.68 2.64 4 4 C3.01 4 2.02 4 1 4 C0.67 2.68 0.34 1.36 0 0 Z " fill="#080808" transform="translate(426,260)"/>
<path d="M0 0 C1.0326802 2.78823655 1.04509293 3.8677274 0.0625 6.75 C-0.288125 7.4925 -0.63875 8.235 -1 9 C-2.1875 7.3125 -2.1875 7.3125 -3 5 C-1.625 2.25 -1.625 2.25 0 0 Z " fill="#171717" transform="translate(414,239)"/>
</svg>
