<?xml version="1.0" encoding="UTF-8"?>
<svg version="1.1" xmlns="http://www.w3.org/2000/svg" width="512" height="512">
<path d="M0 0 C168.96 0 337.92 0 512 0 C512 168.96 512 337.92 512 512 C343.04 512 174.08 512 0 512 C0 343.04 0 174.08 0 0 Z " fill="#020202" transform="translate(0,0)"/>
<path d="M0 0 C84.15 0 168.3 0 255 0 C255 49.83 255 99.66 255 151 C233.88 151 212.76 151 191 151 C191 133.18 191 115.36 191 97 C189.35 96.67 187.7 96.34 186 96 C184.13813777 95.19415258 182.30317041 94.32462983 180.4921875 93.41015625 C178.90325684 92.61230713 178.90325684 92.61230713 177.28222656 91.79833984 C176.1578418 91.2255127 175.03345703 90.65268555 173.875 90.0625 C172.70936523 89.4742041 171.54373047 88.8859082 170.34277344 88.27978516 C162.84922566 84.48564891 155.40001288 80.61312902 147.98388672 76.67016602 C141.11382635 73.02775443 134.15912867 69.56508521 127.19482422 66.10717773 C120.4235784 62.73582259 113.72338574 59.24644184 107.04296875 55.69921875 C101.40311795 52.71397109 95.71620736 49.83599497 90 47 C83.53610857 43.79301621 77.12216218 40.5105481 70.75 37.125 C62.54071344 32.76511 54.24060259 28.60370398 45.91650391 24.46801758 C38.83819889 20.9424663 31.82588879 17.30951719 24.8425293 13.60009766 C16.63581861 9.25166665 8.32442224 5.11745616 0 1 C0 0.67 0 0.34 0 0 Z " fill="#FEFEFE" transform="translate(257,0)"/>
<path d="M0 0 C21.12 0 42.24 0 64 0 C64 49.83 64 99.66 64 151 C-20.15 151 -104.3 151 -191 151 C-187.48754901 148.36566176 -184.09925055 146.45559893 -180.1875 144.5625 C-173.73705323 141.39048837 -167.35820094 138.10265296 -161 134.75 C-148.34211132 128.09507077 -135.53620121 121.73828622 -122.7265625 115.38183594 C-109.37799529 108.74777299 -96.17277158 101.8621936 -83.04333496 94.80493164 C-76.83585227 91.46981611 -70.57583015 88.26694167 -64.26098633 85.14013672 C-58.96382434 82.50719004 -53.72709044 79.76911026 -48.5 77 C-40.71996714 72.88175779 -32.88421653 68.89529427 -24.99560547 64.98974609 C-21.45075827 63.23163372 -17.91340045 61.4585408 -14.375 59.6875 C-13.0911776 59.04550939 -11.80732504 58.40357908 -10.5234375 57.76171875 C-9.36070312 57.18035156 -8.19796875 56.59898437 -7 56 C-5.02 55.01 -3.04 54.02 -1 53 C-0.67 35.51 -0.34 18.02 0 0 Z " fill="#FEFEFE" transform="translate(448,361)"/>
<path d="M0 0 C21.12 0 42.24 0 64 0 C64 17.82 64 35.64 64 54 C65.98 54.66 67.96 55.32 70 56 C72.17771287 57.00444567 74.33705411 58.04930573 76.48046875 59.125 C77.08572891 59.42767792 77.69098907 59.73035583 78.31459045 60.04220581 C80.27436327 61.02394654 82.23100639 62.01174251 84.1875 63 C85.55884818 63.68910634 86.93026805 64.37807002 88.30175781 65.06689453 C96.04027283 68.96111721 103.73321661 72.93001215 111.37573242 77.00976562 C119.50832204 81.3228346 127.75952541 85.39833976 136 89.5 C145.62907647 94.29284473 155.23168828 99.11060501 164.71826172 104.18139648 C173.14644044 108.65880765 181.70885667 112.86989025 190.25250244 117.12112427 C198.70819934 121.33036024 207.13107763 125.58373199 215.45532227 130.04882812 C224.02765452 134.64206121 232.76175593 138.9161294 241.48828125 143.20703125 C242.22232178 143.56982178 242.9563623 143.9326123 243.71264648 144.30639648 C245.1231746 145.00345887 246.53537776 145.69714497 247.94946289 146.38696289 C250.65553795 147.72604803 252.84949289 148.84949289 255 151 C170.85 151 86.7 151 0 151 C0 101.17 0 51.34 0 0 Z " fill="#FEFEFE" transform="translate(0,361)"/>
<path d="M0 0 C83.82 0 167.64 0 254 0 C251.0199327 2.23505047 248.50150172 3.88906839 245.24609375 5.56640625 C243.85535645 6.28703247 243.85535645 6.28703247 242.43652344 7.0222168 C241.4468457 7.53051025 240.45716797 8.03880371 239.4375 8.5625 C237.34742727 9.64278626 235.25758673 10.72352187 233.16796875 11.8046875 C232.12560059 12.34319336 231.08323242 12.88169922 230.00927734 13.43652344 C227.30628148 14.8408708 224.6132934 16.26161471 221.92578125 17.6953125 C213.41880637 22.23289268 204.85243502 26.53579046 196.11523438 30.61279297 C188.13035978 34.36122979 180.35959437 38.48113116 172.57763672 42.63037109 C167.83422295 45.15078701 163.07335513 47.6377331 158.3125 50.125 C156.97880371 50.82459839 156.97880371 50.82459839 155.61816406 51.53833008 C147.46506071 55.79896978 139.23538675 59.90160196 131 64 C104.16590123 77.28158449 104.16590123 77.28158449 77.6015625 91.08984375 C74.96038501 92.49736099 72.31181369 93.88879165 69.6484375 95.25390625 C68.67269775 95.75579468 68.67269775 95.75579468 67.67724609 96.26782227 C66 97 66 97 64 97 C64 114.82 64 132.64 64 151 C42.88 151 21.76 151 0 151 C0 101.17 0 51.34 0 0 Z " fill="#FEFEFE" transform="translate(0,0)"/>
<path d="M0 0 C0.33 0 0.66 0 1 0 C1.04922024 6.6924381 1.05659833 13.3817802 1 20.07421875 C0.96497328 25.17998845 1.09284211 30.23451704 1.375 35.33203125 C1.99629216 51.44947938 1.99629216 51.44947938 -1.45800781 55.86279297 C-5.39830091 59.04129606 -9.89346748 60.64812713 -14.66455078 62.19628906 C-18.29429374 63.4454124 -21.60657492 65.22267394 -25 67 C-26.32178536 67.65852565 -27.6447126 68.31476413 -28.96875 68.96875 C-33.18337453 71.07606227 -37.34301361 73.28164691 -41.5 75.5 C-48.94134258 79.46786803 -56.45441722 83.27033278 -64.01171875 87.01171875 C-66.02198266 88.01092655 -68.02724361 89.01955625 -70.03125 90.03125 C-73.34674434 91.70462495 -76.66972104 93.36208714 -79.99902344 95.0078125 C-81.36117206 95.68323612 -82.72112463 96.36310268 -84.07910156 97.046875 C-86.10870764 98.0659559 -88.14665792 99.06614965 -90.1875 100.0625 C-90.79924072 100.37388916 -91.41098145 100.68527832 -92.04125977 101.00610352 C-94.64577622 102.25736041 -96.61010659 103.01813458 -99.51953125 102.8828125 C-102.66830636 101.76214608 -105.53088054 100.35289494 -108.5 98.8125 C-115.74535072 95.09850404 -123.0651786 91.55183416 -130.40863037 88.03686523 C-140.06534177 83.41174844 -149.64849038 78.69766863 -159.08105469 73.62646484 C-166.23684859 69.80615868 -173.55338804 66.34072877 -180.91162109 62.92895508 C-182.272146 62.29123169 -182.272146 62.29123169 -183.66015625 61.640625 C-184.45043213 61.27485352 -185.24070801 60.90908203 -186.05493164 60.53222656 C-187.0268042 60.0265918 -187.99867676 59.52095703 -189 59 C-189.83323792 58.64340302 -190.66647583 58.28680603 -191.52496338 57.91940308 C-194.41722989 56.51220257 -196.65395655 55.20787284 -199 53 C-200.37319644 48.99751388 -200.17210091 45.23098633 -199.9765625 41.0390625 C-199.96241302 39.89335785 -199.94826355 38.7476532 -199.9336853 37.56723022 C-199.87781725 33.9171321 -199.75239252 30.27323334 -199.625 26.625 C-199.57482949 24.14722424 -199.52920386 21.669352 -199.48828125 19.19140625 C-199.3781823 13.12549838 -199.21098932 7.0631919 -199 1 C-198.34 1 -197.68 1 -197 1 C-195.63620378 2.60358457 -194.33474041 4.26035125 -193.0625 5.9375 C-188.29665606 11.88527324 -183.05938415 16.41954504 -177 21 C-176.14792969 21.67804688 -175.29585937 22.35609375 -174.41796875 23.0546875 C-166.83868671 28.8953936 -158.66430978 33.04168589 -150 37 C-149.38108887 37.28649414 -148.76217773 37.57298828 -148.12451172 37.86816406 C-131.87263139 45.27087589 -116.08792185 47.37100647 -98.375 47.5 C-97.64277222 47.51053406 -96.91054443 47.52106812 -96.15612793 47.53192139 C-64.21280278 47.88688696 -32.98882383 32.97636379 -9.98828125 11.20703125 C-5.39780221 6.67578392 -5.39780221 6.67578392 -1.29296875 1.71484375 C-0.86628906 1.14894531 -0.43960938 0.58304687 0 0 Z " fill="#FBFBFB" transform="translate(353,324)"/>
<path d="M0 0 C0.969375 0.5259375 1.93875 1.051875 2.9375 1.59375 C3.91759033 2.08512451 3.91759033 2.08512451 4.91748047 2.58642578 C7.23920103 3.75682032 9.52582305 4.98138698 11.8125 6.21875 C17.52788364 9.29398237 23.27845083 12.28195511 29.08984375 15.171875 C35.85912614 18.53867233 42.59655167 21.96489321 49.32421875 25.4140625 C50.32318176 25.92583038 51.32214478 26.43759827 52.35137939 26.96487427 C56.48681111 29.08381871 60.62187913 31.20345836 64.75512695 33.32666016 C67.81861369 34.89983445 70.88378942 36.46967755 73.94921875 38.0390625 C74.8599968 38.50796906 75.77077484 38.97687561 76.70915222 39.45999146 C83.71367479 43.04148098 90.77700589 46.28890656 97.9375 49.59375 C97.9375 67.08375 97.9375 84.57375 97.9375 102.59375 C94.74392916 99.40017916 91.72121307 96.27882769 88.75 92.90625 C75.14002279 77.79648911 61.73843217 67.75924404 43.20019531 59.59765625 C41.68607315 58.92587482 40.1800573 58.2355311 38.68261719 57.52734375 C33.48089428 55.09701207 28.44189413 53.4629607 22.8125 52.34375 C21.96357178 52.17464111 21.11464355 52.00553223 20.23999023 51.83129883 C9.83005313 49.95911677 -0.53353757 50.21034824 -11.0625 50.59375 C-12.27550781 50.614375 -13.48851562 50.635 -14.73828125 50.65625 C-43.89369457 51.84173059 -73.17256344 68.60546722 -92.86328125 89.5078125 C-94.96957071 91.83917595 -97.02427879 94.20312606 -99.0625 96.59375 C-100.0525 97.58375 -100.0525 97.58375 -101.0625 98.59375 C-101.0625 82.42375 -101.0625 66.25375 -101.0625 49.59375 C-94.4625 46.29375 -87.8625 42.99375 -81.0625 39.59375 C-75.05866456 36.43379655 -75.05866456 36.43379655 -69.05981445 33.2644043 C-58.76464202 27.8153036 -48.3093909 22.67858985 -37.87207031 17.50878906 C-36.54717893 16.85242673 -35.2227009 16.19522921 -33.89868164 15.53710938 C-32.64383694 14.91364018 -31.3878309 14.29250236 -30.13061523 13.67382812 C-26.23690407 11.74067402 -22.42085102 9.69830473 -18.62109375 7.5859375 C-17.67951416 7.0703125 -16.73793457 6.5546875 -15.76782227 6.0234375 C-13.91647145 5.00649607 -12.07398149 3.97321035 -10.24194336 2.921875 C-3.93258581 -0.52166955 -3.93258581 -0.52166955 0 0 Z " fill="#FCFCFC" transform="translate(256.0625,84.40625)"/>
<path d="M0 0 C9.22936018 6.24044814 15.0841504 14.88665802 17.61621094 25.73999023 C19.61721136 37.5232351 19.35292329 51.21103349 14 62 C13.56429687 62.88816406 13.12859375 63.77632813 12.6796875 64.69140625 C7.94849249 73.36526377 1.22121425 79.39675241 -8 83 C-12.84021835 84.41806586 -17.67971938 84.26285247 -22.6875 84.3125 C-23.64333984 84.34150391 -24.59917969 84.37050781 -25.58398438 84.40039062 C-35.59821223 84.48913293 -43.71775582 80.88179491 -51 74 C-62.12845717 61.51115027 -61.93201859 46.59615105 -61.20263672 30.68212891 C-60.38643426 19.87875518 -55.00968295 10.20839189 -46.83203125 3.12109375 C-44.61872462 1.55806836 -42.40035502 0.25463935 -40 -1 C-39.26394531 -1.41121094 -38.52789062 -1.82242188 -37.76953125 -2.24609375 C-25.82720234 -8.02722115 -11.42787295 -5.96540556 0 0 Z " fill="#F9F9F9" transform="translate(344,216)"/>
<path d="M0 0 C46.17318803 0 46.17318803 0 55.44140625 9.171875 C60.57538313 15.19368246 60.4684391 20.99486035 60.2890625 28.68359375 C59.74392938 34.93789136 57.41187539 39.46207103 53 44 C49.75 45.8125 49.75 45.8125 47 47 C47.47050781 47.37511719 47.94101562 47.75023437 48.42578125 48.13671875 C49.04839844 48.64847656 49.67101562 49.16023438 50.3125 49.6875 C50.92738281 50.18636719 51.54226563 50.68523437 52.17578125 51.19921875 C56.75645934 55.72104444 57.80033444 60.6579876 59 66.75 C60.30197145 73.01620981 61.87874657 78.95442772 64 85 C64 85.99 64 86.98 64 88 C57.07 88 50.14 88 43 88 C40.76810222 80.18835779 40.76810222 80.18835779 40.0703125 76.84375 C39.91433594 76.13089844 39.75835937 75.41804688 39.59765625 74.68359375 C39.2828976 73.22946082 38.9755816 71.77369665 38.67578125 70.31640625 C37.54553302 65.23488374 35.95349563 61.31580911 33 57 C28.39090008 54.40736224 28.39090008 54.40736224 20 54 C20 64.89 20 75.78 20 87 C13.4 87 6.8 87 0 87 C0 58.29 0 29.58 0 0 Z " fill="#F7F7F7" transform="translate(375,212)"/>
<path d="M0 0 C9.9 0 19.8 0 30 0 C37.97190709 18.69274766 37.97190709 18.69274766 41.4375 27.8125 C41.68387207 28.45058594 41.93024414 29.08867187 42.18408203 29.74609375 C43.57963041 33.47549098 44.4743139 37.05433307 45 41 C45.66 41 46.32 41 47 41 C47.15855469 40.42894531 47.31710938 39.85789063 47.48046875 39.26953125 C49.57048201 32.00644649 52.24008212 25.03100392 55 18 C55.52444117 16.60551819 56.04588537 15.20990022 56.5625 13.8125 C58.3082023 9.18259391 60.1623288 4.594178 62 0 C71.24 0 80.48 0 90 0 C89.14164983 4.29175083 88.28066947 6.7519296 86.296875 10.515625 C85.45346558 12.12800049 85.45346558 12.12800049 84.59301758 13.77294922 C83.98482178 14.92037598 83.37662598 16.06780273 82.75 17.25 C82.12137146 18.44645312 81.4933687 19.64323522 80.8659668 20.84033203 C79.5667984 23.3178217 78.26457588 25.79367178 76.96044922 28.26855469 C75.05328194 31.89251501 73.167049 35.52690903 71.28515625 39.1640625 C70.70088867 40.29295898 70.11662109 41.42185547 69.51464844 42.58496094 C68.40156179 44.73641756 67.2889134 46.888101 66.17675781 49.04003906 C65.67112305 50.01424805 65.16548828 50.98845703 64.64453125 51.9921875 C64.20471924 52.84151855 63.76490723 53.69084961 63.31176758 54.56591797 C62 57 62 57 60.36669922 59.24926758 C58.42056675 63.1662155 58.52164836 66.69966113 58.48828125 71.01953125 C58.47033005 71.87810226 58.45237885 72.73667328 58.43388367 73.6212616 C58.37989259 76.3516251 58.34592126 79.08181492 58.3125 81.8125 C58.279317 83.6686439 58.24482642 85.52476492 58.20898438 87.38085938 C58.12172077 91.92059636 58.06155821 96.45955108 58 101 C49.75 101 41.5 101 33 101 C33.04382813 98.41671875 33.08765625 95.8334375 33.1328125 93.171875 C33.52814396 67.34457047 33.52814396 67.34457047 23.38623047 44.09033203 C21.51717418 41.27193472 19.93400207 38.32914997 18.3293457 35.35473633 C17.13395677 33.14158265 15.90832516 30.94825524 14.671875 28.7578125 C11.53892769 23.19051267 8.45051381 17.5991988 5.375 12 C4.84148926 11.03723145 4.30797852 10.07446289 3.75830078 9.08251953 C3.2682959 8.18903809 2.77829102 7.29555664 2.2734375 6.375 C1.83435059 5.57835937 1.39526367 4.78171875 0.94287109 3.9609375 C0 2 0 2 0 0 Z " fill="#FAFAFA" transform="translate(99,199)"/>
<path d="M0 0 C17.49 0 34.98 0 53 0 C53 5.61 53 11.22 53 17 C42.11 17 31.22 17 20 17 C20 22.61 20 28.22 20 34 C29.9 34 39.8 34 50 34 C50 39.61 50 45.22 50 51 C40.1 51 30.2 51 20 51 C20 57.93 20 64.86 20 72 C30.89 72 41.78 72 53 72 C53 77.28 53 82.56 53 88 C35.51 88 18.02 88 0 88 C0 58.96 0 29.92 0 0 Z " fill="#F2F2F2" transform="translate(448,212)"/>
<path d="M0 0 C8.25 0 16.5 0 25 0 C25.06797748 9.99722185 25.12293202 19.99428832 25.15543652 29.99168968 C25.17104287 34.63468438 25.19218844 39.27751174 25.22631836 43.92041016 C25.25909226 48.40730035 25.27689079 52.89403031 25.28463173 57.38103104 C25.29014305 59.0865188 25.30090474 60.79199854 25.31719017 62.49741745 C25.42777321 74.56584508 25.25057077 85.31511056 17.14453125 94.95703125 C7.37125928 104.26745245 -4.57584079 105.40338675 -17.453125 105.18359375 C-26.06228407 104.73796547 -32.46461169 102.1216529 -40 98 C-38.52019402 93.8596102 -36.48492647 90.41296144 -34.0625 86.75 C-33.37285156 85.69296875 -32.68320312 84.6359375 -31.97265625 83.546875 C-30 81 -30 81 -27 80 C-26.2575 80.30164063 -25.515 80.60328125 -24.75 80.9140625 C-21.37796696 82.24563237 -18.61860056 82.33600646 -15 82.375 C-13.80375 82.40335937 -12.6075 82.43171875 -11.375 82.4609375 C-7.34250566 81.91020332 -5.79305506 80.92273262 -3 78 C-0.89649612 73.87740256 -0.7287354 70.32296649 -0.68115234 65.73120117 C-0.66608391 64.66209 -0.66608391 64.66209 -0.65071106 63.57138062 C-0.61995759 61.22858444 -0.60286604 58.88590214 -0.5859375 56.54296875 C-0.56721952 54.91342698 -0.54764563 53.28389483 -0.5272522 51.65437317 C-0.47599149 47.37519006 -0.43633343 43.09597555 -0.39910889 38.81665039 C-0.35903116 34.44604767 -0.30795603 30.0755749 -0.2578125 25.70507812 C-0.16112493 17.13680109 -0.07771425 8.56847015 0 0 Z " fill="#FCFCFC" transform="translate(65,199)"/>
<path d="M0 0 C1.29477815 4.38921651 0.6054454 7.05771117 -0.9375 11.3125 C-1.31777344 12.38113281 -1.69804687 13.44976562 -2.08984375 14.55078125 C-2.39019531 15.35902344 -2.69054687 16.16726562 -3 17 C-3.59167969 16.79503906 -4.18335938 16.59007812 -4.79296875 16.37890625 C-12.75213934 13.66525755 -21.22282962 10.9122998 -29.5078125 13.90625 C-35.89390946 17.1941415 -39.01711894 21.28098423 -41.75 27.875 C-44.61822576 37.17309449 -44.42226535 49.26376968 -40 58 C-39.69449219 58.64453125 -39.38898438 59.2890625 -39.07421875 59.953125 C-36.18256494 64.95831487 -32.31021787 66.65968719 -26.90234375 68.34375 C-19.68821954 69.97493825 -13.76604513 69.34385798 -6.91015625 66.65625 C-5 66 -5 66 -2 66 C-1.49363393 67.74816858 -0.99515381 69.49862263 -0.5 71.25 C-0.2215625 72.22453125 0.056875 73.1990625 0.34375 74.203125 C1 77 1 77 1 81 C-6.78679806 84.58192711 -13.73543599 85.20155298 -22.25 85.25 C-23.14074219 85.270625 -24.03148437 85.29125 -24.94921875 85.3125 C-37.06652571 85.38284721 -46.27599453 81.46237101 -55.0078125 73.0703125 C-64.37238712 62.32740223 -66.1003491 48.78145347 -65.23876953 35.08837891 C-63.85160553 22.95565816 -58.21962292 12.13629821 -48.875 4.3125 C-34.35473032 -6.15169435 -16.28904202 -7.41614921 0 0 Z " fill="#F9F9F9" transform="translate(278,215)"/>
<path d="M0 0 C5.74107069 3.92179402 9.4830755 9.53371444 11.296875 16.234375 C13.1220958 29.13997661 12.0425582 41.06417866 5.16015625 52.27734375 C2.47222576 55.35637523 -0.1827042 56.79938132 -4.21875 57.40234375 C-10.40570394 57.41030637 -14.55989178 57.36852589 -19.31640625 52.96875 C-26.10618691 46.17896934 -27.43005555 35.94514763 -27.56640625 26.71875 C-27.45382325 16.82270404 -25.13317759 9.27618869 -18.31640625 1.96875 C-13.48416863 -2.44929582 -5.84815363 -2.6035625 0 0 Z " fill="#060606" transform="translate(330.31640625,228.03125)"/>
<path d="M0 0 C13.52506793 -0.40985054 13.52506793 -0.40985054 18 3 C20.84715297 7.27072946 20.37645222 10.99398644 20 16 C19.2011183 19.41340362 18.63720939 20.52209296 15.84375 22.6171875 C10.76681614 25.08591633 5.55692287 24.1683916 0 24 C0 16.08 0 8.16 0 0 Z " fill="#050505" transform="translate(395,227)"/>
<path d="M0 0 C2 2 2 2 2.20254517 4.17666626 C2.18033905 5.07823456 2.15813293 5.97980286 2.13525391 6.90869141 C2.11508209 7.92959869 2.09491028 8.95050598 2.0741272 10.00234985 C2.02583267 11.66021011 2.02583267 11.66021011 1.9765625 13.3515625 C1.95153656 14.4807309 1.92651062 15.60989929 1.90072632 16.77328491 C1.81835115 20.39082078 1.7218287 24.00782489 1.625 27.625 C1.5667784 30.07289473 1.50947476 32.52081147 1.453125 34.96875 C1.31274631 40.97946299 1.16074137 46.98979898 1 53 C0.67 53 0.34 53 0 53 C0 36.5 0 20 0 3 C-0.99 2.67 -1.98 2.34 -3 2 C-2.01 1.34 -1.02 0.68 0 0 Z " fill="#131313" transform="translate(354,131)"/>
<path d="M0 0 C0.66 1.32 1.32 2.64 2 4 C3.32 4 4.64 4 6 4 C5.625 6.9375 5.625 6.9375 5 10 C4.01 10.495 4.01 10.495 3 11 C0.33333333 8.33333333 -2.33333333 5.66666667 -5 3 C-3.35 2.01 -1.7 1.02 0 0 Z " fill="#0F0F0F" transform="translate(426,256)"/>
<path d="M0 0 C0.66 0.33 1.32 0.66 2 1 C1.01 2.32 0.02 3.64 -1 5 C-0.34 5.33 0.32 5.66 1 6 C-5.0546875 6.9765625 -5.0546875 6.9765625 -7 7 C-7.66 6.34 -8.32 5.68 -9 5 C-11.32275177 4.59952556 -13.65739357 4.2602896 -16 4 C-16 3.67 -16 3.34 -16 3 C-15.09636719 2.95101562 -14.19273437 2.90203125 -13.26171875 2.8515625 C-12.08222656 2.77679688 -10.90273438 2.70203125 -9.6875 2.625 C-7.92986328 2.52058594 -7.92986328 2.52058594 -6.13671875 2.4140625 C-2.84300113 2.21386253 -2.84300113 2.21386253 0 0 Z " fill="#DBDBDB" transform="translate(411,248)"/>
<path d="M0 0 C0.33 0.99 0.66 1.98 1 3 C0.54625 3.433125 0.0925 3.86625 -0.375 4.3125 C-2.20024334 6.10798342 -2.20024334 6.10798342 -4 9 C-5.32 8.34 -6.64 7.68 -8 7 C-6.47663111 3.31852519 -4.31953005 0 0 0 Z " fill="#161616" transform="translate(247,230)"/>
<path d="M0 0 C-3.82941989 3.32993034 -8.37522222 5.05324525 -13 7 C-12.5 4.6875 -12.5 4.6875 -11 2 C-7.18597368 -0.18297403 -4.23687441 -1.41229147 0 0 Z " fill="#101010" transform="translate(406,435)"/>
<path d="M0 0 C0.763125 0.20625 1.52625 0.4125 2.3125 0.625 C1.9825 1.615 1.6525 2.605 1.3125 3.625 C2.3025 3.955 3.2925 4.285 4.3125 4.625 C4.3125 5.285 4.3125 5.945 4.3125 6.625 C0.40038267 5.46914715 -2.5620041 4.26965038 -5.6875 1.625 C-2.6875 -0.375 -2.6875 -0.375 0 0 Z " fill="#0D0D0D" transform="translate(307.6875,106.375)"/>
<path d="M0 0 C1.65 1.65 3.3 3.3 5 5 C3.768606 7.46278801 2.21935077 8.42497687 0 10 C-2.21538462 4.58461538 -2.21538462 4.58461538 -1.125 1.625 C-0.75375 1.08875 -0.3825 0.5525 0 0 Z " fill="#101010" transform="translate(290,286)"/>
<path d="M0 0 C0.66 0.33 1.32 0.66 2 1 C2 1.66 2 2.32 2 3 C9.26 3 16.52 3 24 3 C24 3.33 24 3.66 24 4 C15.75 4 7.5 4 -1 4 C-1.33 3.34 -1.66 2.68 -2 2 C-1.34 2 -0.68 2 0 2 C0 1.34 0 0.68 0 0 Z " fill="#0D0D0D" transform="translate(66,195)"/>
<path d="M0 0 C0 0.66 0 1.32 0 2 C-2 3.625 -2 3.625 -4 5 C-4.33 4.67 -4.66 4.34 -5 4 C-5.66 5.32 -6.32 6.64 -7 8 C-8.32 8 -9.64 8 -11 8 C-11.66 7.34 -12.32 6.68 -13 6 C-11.21118264 4.99491199 -9.41885304 3.99607264 -7.625 3 C-6.62726563 2.443125 -5.62953125 1.88625 -4.6015625 1.3125 C-2 0 -2 0 0 0 Z " fill="#252525" transform="translate(164,47)"/>
<path d="M0 0 C0.99 0.33 1.98 0.66 3 1 C1.05394864 5.17011006 -0.82988994 7.05394864 -5 9 C-3.7508258 5.54074837 -2.32472205 2.85306797 0 0 Z " fill="#E1E1E1" transform="translate(292,225)"/>
<path d="M0 0 C1.32 0 2.64 0 4 0 C3.67 2.31 3.34 4.62 3 7 C2.34 7 1.68 7 1 7 C0.67 7.66 0.34 8.32 0 9 C-0.87890625 2.84765625 -0.87890625 2.84765625 -1 1 C-0.67 0.67 -0.34 0.34 0 0 Z " fill="#EDEDED" transform="translate(417,290)"/>
<path d="M0 0 C1.18815699 3.98635281 0.78910862 6.1778134 -1 10 C-3.625 11.875 -3.625 11.875 -6 13 C-4.31326082 8.50202887 -2.18326108 4.27113698 0 0 Z " fill="#171717" transform="translate(173,231)"/>
<path d="M0 0 C6.6 0 13.2 0 20 0 C20 0.33 20 0.66 20 1 C18.865625 1.12375 17.73125 1.2475 16.5625 1.375 C14.7990625 1.684375 14.7990625 1.684375 13 2 C12.67 2.66 12.34 3.32 12 4 C11.505 3.690625 11.01 3.38125 10.5 3.0625 C7.02013219 1.58355618 3.75971491 1.37597149 0 1 C0 0.67 0 0.34 0 0 Z " fill="#C9C9C9" transform="translate(246,211)"/>
<path d="M0 0 C0 0.66 0 1.32 0 2 C-0.804375 2.12375 -1.60875 2.2475 -2.4375 2.375 C-3.7059375 2.684375 -3.7059375 2.684375 -5 3 C-5.33 3.66 -5.66 4.32 -6 5 C-8.475 4.01 -8.475 4.01 -11 3 C-6.7849044 -0.23157329 -5.27490657 -1.24931998 0 0 Z " fill="#1E1E1E" transform="translate(259,1)"/>
<path d="M0 0 C0.66 0.99 1.32 1.98 2 3 C1 6 1 6 -0.8125 7.125 C-2.86663723 7.94665489 -4.8526878 8.48680589 -7 9 C-6.02180976 7.68677212 -5.0424189 6.37443848 -4.0625 5.0625 C-3.51722656 4.33160156 -2.97195312 3.60070312 -2.41015625 2.84765625 C-1 1 -1 1 0 0 Z " fill="#222222" transform="translate(163,173)"/>
<path d="M0 0 C-2 3 -2 3 -5 5 C-5.99 5 -6.98 5 -8 5 C-7.75 3.125 -7.75 3.125 -7 1 C-4.09342573 -1.03460199 -3.47133392 -1.15711131 0 0 Z " fill="#161616" transform="translate(73,95)"/>
<path d="M0 0 C-1.32 1.32 -2.64 2.64 -4 4 C-7.875 1.25 -7.875 1.25 -9 -1 C-5.23375329 -2.25541557 -3.62811066 -1.37061958 0 0 Z " fill="#0C0C0C" transform="translate(390,68)"/>
<path d="M0 0 C2.475 0.99 2.475 0.99 5 2 C2.14693203 4.32472205 -0.54074837 5.7508258 -4 7 C-4.33 6.01 -4.66 5.02 -5 4 C-4.360625 3.71125 -3.72125 3.4225 -3.0625 3.125 C-0.84793921 2.17176549 -0.84793921 2.17176549 0 0 Z " fill="#0E0E0E" transform="translate(387,440)"/>
<path d="M0 0 C0.66 1.32 1.32 2.64 2 4 C0.35 5.32 -1.3 6.64 -3 8 C-3.33 6.02 -3.66 4.04 -4 2 C-3.01 2 -2.02 2 -1 2 C-0.67 1.34 -0.34 0.68 0 0 Z " fill="#121212" transform="translate(61,273)"/>
<path d="M0 0 C1.65 1.32 3.3 2.64 5 4 C4.67 5.65 4.34 7.3 4 9 C3.38125 8.21625 2.7625 7.4325 2.125 6.625 C0.10141339 4.03162353 0.10141339 4.03162353 -2 2 C-1.34 2 -0.68 2 0 2 C0 1.34 0 0.68 0 0 Z " fill="#E0E0E0" transform="translate(408,265)"/>
<path d="M0 0 C0.66 1.32 1.32 2.64 2 4 C1.34 4 0.68 4 0 4 C-0.33 4.99 -0.66 5.98 -1 7 C-2.32 5.68 -3.64 4.36 -5 3 C-3.35 2.01 -1.7 1.02 0 0 Z " fill="#262626" transform="translate(426,256)"/>
<path d="M0 0 C2.9375 0.75 2.9375 0.75 6 2 C6.33 3.32 6.66 4.64 7 6 C4.36 5.01 1.72 4.02 -1 3 C-0.67 2.01 -0.34 1.02 0 0 Z " fill="#131313" transform="translate(369,58)"/>
<path d="M0 0 C1.49080078 0.29197266 1.49080078 0.29197266 3.01171875 0.58984375 C4.15060547 0.82380859 4.15060547 0.82380859 5.3125 1.0625 C5.3125 1.3925 5.3125 1.7225 5.3125 2.0625 C3.72955218 2.11687607 2.14605744 2.15546271 0.5625 2.1875 C-0.31921875 2.21070313 -1.2009375 2.23390625 -2.109375 2.2578125 C-4.8010858 2.05389502 -6.38654974 1.42801721 -8.6875 0.0625 C-5.21237282 -1.09587573 -3.55079714 -0.71015943 0 0 Z " fill="#474747" transform="translate(258.6875,282.9375)"/>
<path d="M0 0 C2.64 0.66 5.28 1.32 8 2 C7.67 2.99 7.34 3.98 7 5 C4.0625 4.1875 4.0625 4.1875 1 3 C0.67 2.01 0.34 1.02 0 0 Z " fill="#202020" transform="translate(283,97)"/>
<path d="M0 0 C-0.78375 0.45375 -1.5675 0.9075 -2.375 1.375 C-5.03698031 2.88428742 -5.03698031 2.88428742 -7 5 C-8.32 4.34 -9.64 3.68 -11 3 C-9.73581754 2.30034557 -8.46334598 1.61565237 -7.1875 0.9375 C-6.47980469 0.55464844 -5.77210937 0.17179687 -5.04296875 -0.22265625 C-3 -1 -3 -1 0 0 Z " fill="#212121" transform="translate(118,72)"/>
<path d="M0 0 C0.33 0.66 0.66 1.32 1 2 C0.67 2.66 0.34 3.32 0 4 C-3.22973469 5.07657823 -6.64450899 5.46617188 -10 6 C-6.87567603 3.47650757 -3.61939504 1.72743854 0 0 Z " fill="#1D1D1D" transform="translate(133,62)"/>
<path d="M0 0 C1.98 0.66 3.96 1.32 6 2 C5.625 3.9375 5.625 3.9375 5 6 C4.01 6.495 4.01 6.495 3 7 C3 5.68 3 4.36 3 3 C2.01 2.67 1.02 2.34 0 2 C0 1.34 0 0.68 0 0 Z " fill="#0F0F0F" transform="translate(441,95)"/>
<path d="M0 0 C0.99 0.99 1.98 1.98 3 3 C0.36 3.66 -2.28 4.32 -5 5 C-4.1875 3.0625 -4.1875 3.0625 -3 1 C-2.01 0.67 -1.02 0.34 0 0 Z " fill="#1A1A1A" transform="translate(295,362)"/>
<path d="M0 0 C0.99 0 1.98 0 3 0 C1.60667426 3.36720387 0.0210714 4.9859524 -3 7 C-2.38722388 4.03824877 -1.74627478 2.61941217 0 0 Z " fill="#212121" transform="translate(348,326)"/>
<path d="M0 0 C2.475 0.99 2.475 0.99 5 2 C2.61426621 3.89213369 0.92824652 5.02391783 -2 6 C-2 5.34 -2 4.68 -2 4 C-1.34 4 -0.68 4 0 4 C0 2.68 0 1.36 0 0 Z " fill="#101010" transform="translate(156,129)"/>
<path d="M0 0 C1.65 0 3.3 0 5 0 C4.67 1.65 4.34 3.3 4 5 C2.68 4.67 1.36 4.34 0 4 C0 2.66666667 0 1.33333333 0 0 Z " fill="#151515" transform="translate(271,89)"/>
<path d="M0 0 C-3.75 3 -3.75 3 -6 3 C-6.33 2.01 -6.66 1.02 -7 0 C-4.3333581 -1.33332095 -2.83319697 -0.67102033 0 0 Z " fill="#171717" transform="translate(373,452)"/>
<path d="M0 0 C0.66 0.66 1.32 1.32 2 2 C0.35 3.32 -1.3 4.64 -3 6 C-3.66 5.34 -4.32 4.68 -5 4 C-3.35 2.68 -1.7 1.36 0 0 Z " fill="#161616" transform="translate(334,340)"/>
<path d="M0 0 C2 1 2 1 3 3 C0.6875 3.625 0.6875 3.625 -2 4 C-2.99 3.34 -3.98 2.68 -5 2 C-2.625 0.9375 -2.625 0.9375 0 0 Z " fill="#242424" transform="translate(277,296)"/>
<path d="M0 0 C-2 3 -2 3 -4.625 3.6875 C-5.800625 3.8421875 -5.800625 3.8421875 -7 4 C-7 3.01 -7 2.02 -7 1 C-4.53721199 -0.231394 -2.7204945 -0.07159196 0 0 Z " fill="#1D1D1D" transform="translate(322,227)"/>
<path d="M0 0 C2.97 0.495 2.97 0.495 6 1 C5.01 1.495 5.01 1.495 4 2 C4 2.66 4 3.32 4 4 C1.525 3.01 1.525 3.01 -1 2 C-0.67 1.34 -0.34 0.68 0 0 Z " fill="#1C1C1C" transform="translate(284,138)"/>
</svg>
